<?xml version="1.0" encoding="UTF-8" standalone="no"?>
<!-- Created with Inkscape (http://www.inkscape.org/) -->

<svg
   version="1.1"
   id="svg2"
   xml:space="preserve"
   width="326.27612"
   height="228.13345"
   viewBox="0 0 326.27611 228.13345"
   xmlns="http://www.w3.org/2000/svg"
   xmlns:svg="http://www.w3.org/2000/svg"><defs
     id="defs6" /><g
     id="g8"
     transform="matrix(1.3333333,0,0,-1.3333333,-94.390522,576.66665)"><g
       id="g10"
       transform="translate(72,432)"
       style="stroke:none"><path
         d="M 0,0 H 145.8 L 121.5,-24.3 H 72.9 V -48.6 H 97.2 V -72.9 H 72.9 v -24.3 l 24.3,-24.3 H 24.3 l 24.3,24.3 v 24.3 l -24.3,24.3 h 24.3 v 24.3 H 24.3 Z"
         style="fill:#000000;fill-opacity:1;fill-rule:nonzero;stroke:none"
         id="path12" /></g><g
       id="g14"
       transform="translate(72,432)"><path
         d="M 0,0 H 145.8 L 121.5,-24.3 H 72.9 V -48.6 H 97.2 V -72.9 H 72.9 v -24.3 l 24.3,-24.3 H 24.3 l 24.3,24.3 v 24.3 l -24.3,24.3 h 24.3 v 24.3 H 24.3 Z"
         style="fill:none;stroke:none;stroke-width:1;stroke-linecap:butt;stroke-linejoin:miter;stroke-miterlimit:4;stroke-dasharray:none;stroke-opacity:1"
         id="path16" /></g><path
       d="m 290.7,383.4 h -24.3 v 24.3 h 24.3 z m 0,48.6 h -72.9 l 24.3,-24.3 v -72.9 l -24.3,-24.3 h 72.9 l -24.3,24.3 v 24.3 h 24.3 l 24.3,24.3 v 24.3 z"
       style="fill:#000000;fill-opacity:1;fill-rule:nonzero;stroke:none"
       id="path18" /><path
       d="m 290.7,383.4 h -24.3 v 24.3 h 24.3 z m 0,48.6 h -72.9 l 24.3,-24.3 v -72.9 l -24.3,-24.3 h 72.9 l -24.3,24.3 v 24.3 h 24.3 l 24.3,24.3 v 24.3 z"
       style="fill:none;stroke:none;stroke-width:1;stroke-linecap:butt;stroke-linejoin:miter;stroke-miterlimit:4;stroke-dasharray:none;stroke-opacity:1"
       id="path20" /><g
       id="g22"
       transform="translate(169.2002,383.3999)"
       style="stroke:none"><path
         d="M 0,0 H 72.9 L 48.6,-24.3 H 24.3 V -48.6 H 48.6 V -72.9 H 24.3 v -24.3 h 24.3 l 24.3,-24.3 H -24.3 L 0,-97.2 Z"
         style="fill:#000000;fill-opacity:1;fill-rule:nonzero;stroke:none"
         id="path24" /></g><g
       id="g26"
       transform="translate(169.2002,383.3999)"
       style="stroke:none"><path
         d="M 0,0 H 72.9 L 48.6,-24.3 H 24.3 V -48.6 H 48.6 V -72.9 H 24.3 v -24.3 h 24.3 l 24.3,-24.3 H -24.3 L 0,-97.2 V 0"
         style="fill:none;stroke:none;stroke-width:1;stroke-linecap:butt;stroke-linejoin:miter;stroke-miterlimit:4;stroke-dasharray:none;stroke-opacity:1"
         id="path28" /></g></g></svg>
